# xmcd
#
# Track frame offsets:
#	150
#	13685
#	26675
#	37695
#	47935
#	58117
#	74240
#	91855
#	102007
#	118040
#	130320
#	141285
#
# Disc length: 2103 seconds
#
# Revision: 1
# Processed by: cddbd v1.5.2PL0 Copyright (c) Steve Scherf et al.
# Submitted via: audiograbber 1.83.01
#
DISCID=a808350c
DTITLE=Dinah Shore and Red Norvo - Dinah Sings Some Blues with Red
DYEAR=1991
DGENRE=Jazz Vocal
TTITLE0=Bye Bye Blues
TTITLE1=I Can't Face the Music without Singing the Blues
TTITLE2=Someday Sweetheart
TTITLE3=It's Funny To Everyone But Me
TTITLE4=Who
TTITLE5=I Can't Believe That You're In Love with Me
TTITLE6=I Ain't Got Nothin' But the Blues
TTITLE7=Lucky In Love
TTITLE8=Do Nothin' Till You Hear from Me
TTITLE9=It's All Right with Me
TTITLE10=Skylark
TTITLE11=Lover Come Back To Me
EXTD=
EXTT0=
EXTT1=
EXTT2=
EXTT3=
EXTT4=
EXTT5=
EXTT6=
EXTT7=
EXTT8=
EXTT9=
EXTT10=
EXTT11=
PLAYORDER=
